<?xml version="1.0"?>
<svg xmlns="http://www.w3.org/2000/svg" xmlns:xlink="http://www.w3.org/1999/xlink" version="1.1" id="Capa_1" x="0px" y="0px" viewBox="0 0 512.002 512.002" style="enable-background:new 0 0 512.002 512.002;" xml:space="preserve" width="512px" height="512px"><g><g>
	<g>
		<path d="M427.672,419.64l-71.581-71.582c-6.407-6.407-14.926-9.936-23.987-9.936s-17.58,3.529-23.987,9.936l-9.352,9.351    c-6.467,6.468-15.066,10.03-24.213,10.03c-9.147,0-17.746-3.562-24.213-10.03l-52.756-52.756    c-6.468-6.467-10.03-15.066-10.03-24.213c0-7.993,2.72-15.566,7.722-21.665c0.011-0.014,0.023-0.028,0.033-0.041    c0.713-0.866,1.471-1.702,2.274-2.505l9.351-9.352c13.227-13.227,13.227-34.749,0-47.975l-71.581-71.581    c-11.761-11.761-28.525-16.765-44.845-13.396c-16.118,3.333-29.344,14.409-35.381,29.628    c-15.698,39.576-16.176,86.563-1.38,135.876c14.892,49.641,44.061,97.176,84.351,137.467    c40.29,40.29,87.825,69.458,137.466,84.351c23.909,7.172,47.263,10.755,69.498,10.755c23.628-0.001,45.989-4.048,66.378-12.135    c15.22-6.038,26.295-19.263,29.628-35.381C444.442,448.168,439.434,431.403,427.672,419.64z M421.786,460.497    c-2.016,9.748-8.433,17.427-17.606,21.065c-73.173,29.025-176.864-3.294-252.161-78.59    C76.722,327.675,44.405,223.983,73.428,150.811c3.639-9.173,11.317-15.591,21.066-17.607c2.015-0.416,4.042-0.621,6.052-0.621    c7.766,0,15.275,3.05,20.883,8.658l71.581,71.581c5.549,5.55,5.549,14.58,0,20.129l-5.511,5.512l-23.686-23.686    c-3.844-3.843-10.078-3.843-13.923,0c-3.844,3.844-3.844,10.078,0,13.923l25.037,25.037c-4.601,8.046-7.065,17.183-7.065,26.703    c0,14.406,5.609,27.95,15.796,38.135l52.756,52.756c10.186,10.186,23.73,15.797,38.136,15.797c14.406,0,27.95-5.61,38.135-15.797    l9.352-9.351c2.689-2.689,6.262-4.169,10.065-4.169c3.802,0,7.377,1.481,10.065,4.169l71.58,71.58    C420.809,440.621,423.814,450.691,421.786,460.497z" data-original="#000000" class="active-path" data-old_color="#156ede" fill="#156ede"/>
	</g>
</g><g>
	<g>
		<path d="M400.099,88.602H380.41V68.912c0-5.436-4.407-9.845-9.845-9.845h-39.378c-5.437,0-9.845,4.408-9.845,9.845v19.689h-19.689    c-5.437,0-9.845,4.408-9.845,9.845v39.378c0,5.436,4.407,9.845,9.845,9.845h19.689v19.689c0,5.436,4.407,9.845,9.845,9.845h39.378    c5.437,0,9.845-4.408,9.845-9.845v-19.689h19.689c5.437,0,9.845-4.408,9.845-9.845V98.446    C409.944,93.01,405.537,88.602,400.099,88.602z M390.255,127.98h-19.689c-5.437,0-9.845,4.408-9.845,9.845v19.689h-19.689v-19.689    c0-5.436-4.407-9.845-9.845-9.845h-19.689v-19.689h19.689c5.437,0,9.845-4.408,9.845-9.845V78.757h19.689v19.689    c0,5.436,4.407,9.845,9.845,9.845h19.689V127.98z" data-original="#000000" class="active-path" data-old_color="#156ede" fill="#156ede"/>
	</g>
</g><g>
	<g>
		<path d="M414.538,0H287.214c-30.037,0-54.474,24.436-54.474,54.474v127.322c0,30.038,24.437,54.474,54.474,54.474h24.284v46.27    c0,4.205,2.67,7.944,6.645,9.31c1.049,0.36,2.129,0.536,3.198,0.536c2.977,0,5.865-1.354,7.767-3.794l40.77-52.321h44.661    c30.037,0,54.473-24.436,54.473-54.474V54.474C469.012,24.436,444.574,0,414.538,0z M449.322,181.797    c0,19.18-15.604,34.785-34.784,34.785h-49.47c-3.035,0-5.9,1.4-7.765,3.794l-26.116,33.515v-27.465    c0-5.436-4.407-9.845-9.845-9.845h-34.128c-19.18,0-34.784-15.605-34.784-34.785V54.474c0-19.18,15.605-34.785,34.784-34.785    h127.324c19.18,0,34.784,15.605,34.784,34.785V181.797z" data-original="#000000" class="active-path" data-old_color="#156ede" fill="#156ede"/>
	</g>
</g><g>
	<g>
		<path d="M145.624,198.929c-0.128-0.629-0.315-1.249-0.561-1.84c-0.246-0.592-0.551-1.163-0.906-1.703    c-0.364-0.532-0.768-1.044-1.231-1.496c-0.453-0.453-0.955-0.867-1.496-1.221c-0.532-0.354-1.103-0.66-1.693-0.906    c-0.601-0.246-1.221-0.433-1.841-0.561c-1.27-0.256-2.579-0.256-3.849,0c-0.63,0.128-1.25,0.315-1.841,0.561    c-0.601,0.246-1.172,0.551-1.703,0.906c-0.541,0.353-1.044,0.768-1.496,1.221c-0.453,0.453-0.866,0.964-1.221,1.496    c-0.354,0.541-0.66,1.112-0.906,1.703c-0.246,0.591-0.433,1.21-0.561,1.84c-0.128,0.64-0.197,1.281-0.197,1.92    c0,2.6,1.053,5.14,2.884,6.97c0.453,0.453,0.955,0.866,1.496,1.221c0.532,0.354,1.103,0.66,1.703,0.906    c0.591,0.246,1.211,0.433,1.841,0.561c0.63,0.128,1.28,0.196,1.92,0.196c0.65,0,1.29-0.068,1.93-0.196    c0.62-0.128,1.24-0.315,1.841-0.561c0.591-0.246,1.162-0.551,1.693-0.906c0.541-0.354,1.044-0.768,1.496-1.221    c1.841-1.83,2.884-4.37,2.884-6.97C145.811,200.21,145.752,199.569,145.624,198.929z" data-original="#000000" class="active-path" data-old_color="#156ede" fill="#156ede"/>
	</g>
</g></g> </svg>
