<?xml version="1.0"?>
<svg xmlns="http://www.w3.org/2000/svg" xmlns:xlink="http://www.w3.org/1999/xlink" version="1.1" id="Capa_1" x="0px" y="0px" viewBox="0 0 512 512" style="enable-background:new 0 0 512 512;" xml:space="preserve" width="512px" height="512px"><g><g>
	<g>
		<path d="M400.033,264.232c-5.524,0-10.002,4.478-10.002,10.002v83.353c0,5.524,4.478,10.002,10.002,10.002    s10.002-4.478,10.002-10.002v-83.353C410.035,268.71,405.557,264.232,400.033,264.232z" data-original="#000000" class="active-path" data-old_color="#156ede" fill="#156ede"/>
	</g>
</g><g>
	<g>
		<path d="M407.104,388.521c-1.86-1.86-4.441-2.931-7.072-2.931s-5.211,1.07-7.072,2.931s-2.931,4.441-2.931,7.072    s1.07,5.211,2.931,7.082c1.86,1.86,4.441,2.921,7.072,2.921s5.211-1.06,7.072-2.921c1.86-1.87,2.931-4.451,2.931-7.082    S408.965,390.381,407.104,388.521z" data-original="#000000" class="active-path" data-old_color="#156ede" fill="#156ede"/>
	</g>
</g><g>
	<g>
		<path d="M418.004,148.889l-0.8-0.536c-17.227-11.547-28.322-29.915-30.692-50.223c11.391-4.263,19.523-15.255,19.523-28.114    V30.007C406.034,13.461,392.573,0,376.027,0H135.971c-16.546,0-30.007,13.461-30.007,30.007v40.009    c0,12.859,8.132,23.851,19.523,28.113c-2.371,20.309-13.464,38.677-30.691,50.223l-0.801,0.537    c-25.073,16.805-40.041,44.857-40.041,75.042v0.062v258C53.953,498.539,67.414,512,83.96,512H428.04    c16.546,0,30.007-13.461,30.007-30.007v-258v-0.062C458.046,193.747,443.078,165.694,418.004,148.889z M125.969,30.007    c0-5.515,4.487-10.002,10.002-10.002h240.056c5.515,0,10.002,4.487,10.002,10.002v40.009c0,5.207-4.001,9.493-9.089,9.956    c-0.301-0.027-0.604-0.046-0.913-0.046h-22.894V50.073c0-5.524-4.478-10.002-10.002-10.002s-10.002,4.478-10.002,10.002v29.854    h-38.083V50.073c0-5.524-4.478-10.002-10.002-10.002c-5.524,0-10.002,4.478-10.002,10.002v29.854h-38.083V50.073    c0-5.524-4.478-10.002-10.002-10.002s-10.002,4.478-10.002,10.002v29.854H178.87V50.073c0-5.524-4.478-10.002-10.002-10.002    c-5.524,0-10.002,4.478-10.002,10.002v29.854h-22.894c-0.308,0-0.612,0.019-0.913,0.046c-5.088-0.463-9.089-4.749-9.089-9.956    V30.007z M105.13,165.507l0.801-0.537c22.252-14.914,36.545-38.686,39.478-64.946h221.177    c2.934,26.26,17.226,50.032,39.479,64.947l0.8,0.536c16.733,11.216,27.678,28.869,30.465,48.483H74.666    C77.452,194.376,88.397,176.722,105.13,165.507z M438.042,481.993c0,5.515-4.487,10.002-10.002,10.002H83.959    c-5.515,0-10.002-4.487-10.002-10.002v-23.946h364.085V481.993z M438.042,438.043H73.956V233.995h364.085V438.043z" data-original="#000000" class="active-path" data-old_color="#156ede" fill="#156ede"/>
	</g>
</g><g>
	<g>
		<path d="M316.013,306.012h-30.007v-30.007c0-5.524-4.478-10.002-10.002-10.002h-40.009c-5.524,0-10.002,4.478-10.002,10.002    v30.007h-30.007c-5.524,0-10.002,4.478-10.002,10.002v40.009c0,5.524,4.478,10.002,10.002,10.002h30.007v30.007    c0,5.524,4.478,10.002,10.002,10.002h40.009c5.524,0,10.002-4.478,10.002-10.002v-30.007h30.007    c5.524,0,10.002-4.478,10.002-10.002v-40.009C326.015,310.49,321.537,306.012,316.013,306.012z M306.011,346.021h-30.007    c-5.524,0-10.002,4.478-10.002,10.002v30.007h-20.005v-30.007c0-5.524-4.478-10.002-10.002-10.002h-30.007v-20.005h30.007    c5.524,0,10.002-4.478,10.002-10.002v-30.007h20.005v30.007c0,5.524,4.478,10.002,10.002,10.002h30.007V346.021z" data-original="#000000" class="active-path" data-old_color="#156ede" fill="#156ede"/>
	</g>
</g></g> </svg>
