<?xml version="1.0"?>
<svg xmlns="http://www.w3.org/2000/svg" xmlns:xlink="http://www.w3.org/1999/xlink" version="1.1" id="Capa_1" x="0px" y="0px" viewBox="0 0 512 512" style="enable-background:new 0 0 512 512;" xml:space="preserve" width="512px" height="512px"><g><path d="M496.985,481.993h-15V272h15c11.123,0,18.401-11.736,13.417-21.707l-59.998-119.996c-2.541-5.082-7.735-8.292-13.417-8.292  h-75.998V77.006c0-8.284-6.716-15-15-15h-44.999V15.008c0-8.284-6.716-15-15-15h-59.998c-8.284,0-15,6.716-15,15v46.999h-44.999  c-8.284,0-15,6.716-15,15v44.999H74.998c-5.682,0-10.875,3.21-13.417,8.292L1.583,250.292c-2.325,4.649-2.076,10.172,0.657,14.594  C4.973,269.308,9.801,272,15,272h15v209.993H15c-8.284,0-15,6.716-15,15c0,8.284,6.716,15,15,15h481.985c8.284,0,15-6.716,15-15  C511.984,488.709,505.269,481.993,496.985,481.993z M451.986,421.995H330.99v-89.997h120.996V421.995z M180.995,92.005h44.999  c8.284,0,15-6.716,15-15V30.007h29.999v46.999c0,8.284,6.716,15,15,15h44.999v29.999h-44.999c-8.284,0-15,6.716-15,15v44.999  h-29.999v-44.999c0-8.284-6.716-15-15-15h-44.999V92.005z M84.269,152.003c7.982,0,122.833,0,126.725,0v44.999  c0,8.284,6.716,15,15,15h59.998c8.284,0,15-6.716,15-15v-44.999c3.89,0,118.738,0,126.725,0l44.999,89.997H39.27L84.269,152.003z   M59.999,272h391.988v29.999H315.991c-8.284,0-15,6.716-15,15v119.996c0,8.284,6.716,15,15,15h135.996v29.999H270.992V316.998  c0-8.284-6.716-15-15-15H105.997c-8.284,0-15,6.716-15,15v164.995H59.999V272z M195.994,331.998h44.999v149.995h-44.999V331.998z   M165.995,481.993h-44.999V331.998h44.999V481.993z" data-original="#000000" class="active-path" data-old_color="#156ede" fill="#156ede"/></g> </svg>
