<?xml version="1.0"?>
<svg xmlns="http://www.w3.org/2000/svg" xmlns:xlink="http://www.w3.org/1999/xlink" version="1.1" id="Capa_1" x="0px" y="0px" viewBox="0 0 480 480" style="enable-background:new 0 0 480 480;" xml:space="preserve" width="512px" height="512px" class=""><g><g>
	<g>
		<path d="M216,16h-8V0h-24c-13.255,0-24,10.745-24,24s10.745,24,24,24h24V32h8c22.08,0.026,39.974,17.92,40,40v112    c0,66.274-53.726,120-120,120S16,250.274,16,184V72c0.026-22.08,17.92-39.974,40-40h8v16h24c13.255,0,24-10.745,24-24    S101.255,0,88,0H64v16h-8C25.087,16.035,0.035,41.087,0,72v112c0,75.111,60.889,136,136,136s136-60.889,136-136V72    C271.965,41.087,246.913,16.035,216,16z M192,32h-8c-4.418,0-8-3.582-8-8s3.582-8,8-8h8V32z M80,16h8c4.418,0,8,3.582,8,8    s-3.582,8-8,8h-8V16z" data-original="#000000" class="active-path" data-old_color="#156ede" fill="#156ede"/>
	</g>
</g><g>
	<g>
		<path d="M392,160v208c0,13.255-10.745,24-24,24s-24-10.745-24-24v-44c0-24.301-19.699-44-44-44s-44,19.699-44,44v84    c0,30.928-25.072,56-56,56c-30.928,0-56-25.072-56-56v-88h-16v88c0,39.764,32.236,72,72,72c39.765,0,72-32.236,72-72v-84    c0-15.464,12.536-28,28-28c15.464,0,28,12.536,28,28v44c0,22.091,17.909,40,40,40c22.091,0,40-17.909,40-40V160H392z" data-original="#000000" class="active-path" data-old_color="#156ede" fill="#156ede"/>
	</g>
</g><g>
	<g>
		<path d="M400,0c-44.183,0-80,35.817-80,80s35.817,80,80,80c44.163-0.049,79.952-35.837,80-80C480,35.817,444.183,0,400,0z     M400,144c-35.346,0-64-28.654-64-64c0-35.346,28.654-64,64-64c35.346,0,64,28.654,64,64C463.96,115.33,435.33,143.96,400,144z" data-original="#000000" class="active-path" data-old_color="#156ede" fill="#156ede"/>
	</g>
</g><g>
	<g>
		<path d="M400,48c-17.673,0-32,14.327-32,32s14.327,32,32,32c17.673,0,32-14.327,32-32S417.673,48,400,48z M400,96    c-8.837,0-16-7.163-16-16s7.163-16,16-16s16,7.163,16,16S408.837,96,400,96z" data-original="#000000" class="active-path" data-old_color="#156ede" fill="#156ede"/>
	</g>
</g></g> </svg>
