<?xml version="1.0"?>
<svg xmlns="http://www.w3.org/2000/svg" xmlns:xlink="http://www.w3.org/1999/xlink" version="1.1" id="Capa_1" x="0px" y="0px" width="512px" height="512px" viewBox="0 0 87.507 87.507" style="enable-background:new 0 0 87.507 87.507;" xml:space="preserve" class=""><g><g>
	<path d="M59.906,69.927h6.347v3.692h-6.347v6.135h-3.69v-6.135h-5.924v-3.692h5.924v-6.135h3.69V69.927z M26.832,24.799   c0-5.083,2.266-9.615,5.816-12.716c-0.026-0.308-0.048-0.616-0.048-0.93C32.6,5.003,37.604,0,43.752,0   c6.15,0,11.153,5.003,11.153,11.153c0,0.313-0.021,0.622-0.047,0.93c3.551,3.101,5.814,7.633,5.814,12.716   c0,9.346-7.575,16.922-16.921,16.922S26.832,34.145,26.832,24.799z M34.907,11.153c0,4.878,3.968,8.846,8.846,8.846   c4.878,0,8.846-3.968,8.846-8.846s-3.968-8.845-8.846-8.845C38.875,2.308,34.907,6.275,34.907,11.153z M72.6,64.541v17.564   l-0.12-0.002l-1.133,0.574c-0.57,0.288-9.801,4.829-25.725,4.829c-8.152,0-18.06-1.188-29.458-4.75l-1.212-0.379l-0.045-0.272   V64.541c0-11.946,9.72-21.666,21.667-21.666h14.357C62.88,42.875,72.6,52.595,72.6,64.541z M70.292,64.541   c0-10.674-8.686-19.357-19.359-19.357h-1.701c-3.432,2.312-4.697,11.655-4.9,15.562l-1.154-0.029   c0-8.549-3.862-13.773-5.417-15.533h-1.185c-10.675,0-19.359,8.686-19.359,19.358v15.257l-0.007,0.537   c32.685,10.208,52.844,0.182,53.047,0.078l0.035-0.616V64.541z M43.753,14.614c1.912,0,3.462-1.55,3.462-3.461   c0-1.912-1.551-3.462-3.462-3.462c-1.911,0-3.461,1.55-3.461,3.462S41.842,14.614,43.753,14.614z" data-original="#000000" class="active-path" data-old_color="#156ede" fill="#156ede"/>
</g></g> </svg>
